<svg width="40" height="40" viewBox="0 0 40 40" fill="none" xmlns="http://www.w3.org/2000/svg">
<path d="M1.56683 12.24C3.4913 7.66858 7.04577 3.97536 11.5402 1.87734C16.0346 -0.220687 21.1482 -0.573828 25.8883 0.886475C30.6285 2.34678 34.6569 5.51633 37.1914 9.7798C39.726 14.0433 40.586 19.0964 39.6043 23.9583C38.6227 28.8201 35.8695 33.1438 31.8792 36.0898C27.8889 39.0359 22.9463 40.3941 18.011 39.9008C13.0756 39.4075 8.49957 37.098 5.17131 33.4205C1.84304 29.743 1.14441e-05 24.9599 1.52588e-05 20C-0.00333023 17.3344 0.52951 14.6954 1.56683 12.24ZM12.7091 37.1063C15.7828 38.4067 19.1505 38.8536 22.457 38.3997C25.7635 37.9459 28.8862 36.6082 31.4959 34.5277L26.8518 27.065C26.5122 26.5195 26.0641 26.2068 25.5891 26.1841C25.1141 26.1613 24.6386 26.4313 24.2495 26.9427L22.4723 29.2768C21.81 30.1463 20.9082 30.6268 19.9323 30.63H19.9218C18.95 30.63 18.0486 30.1559 17.3832 29.294L15.56 26.9327C15.1677 26.425 14.6964 26.16 14.225 26.1877C13.7536 26.2154 13.3159 26.5327 12.985 27.0822L8.46409 34.5999C9.76058 35.6216 11.1883 36.4645 12.7091 37.1063ZM6.80773 33.1272C7.00379 33.323 7.20333 33.5139 7.40636 33.7L11.8109 26.3759C12.3736 25.44 13.2245 24.8727 14.1454 24.8195C15.0664 24.7663 15.9773 25.2286 16.6454 26.095L18.4686 28.4586C18.8686 28.9768 19.385 29.2618 19.9232 29.2618H19.9282C20.4686 29.2618 20.985 28.9713 21.3827 28.4486L23.1591 26.1104C23.82 25.2427 24.7286 24.7709 25.6536 24.8136C26.5786 24.8563 27.4391 25.4131 28.015 26.3391L32.5472 33.6236C32.7218 33.4618 32.8934 33.2963 33.0622 33.1272C33.5982 32.5919 34.1012 32.0247 34.5686 31.4286L20.9991 8.15181C20.6918 7.62453 20.3068 7.32226 19.9427 7.32226C19.5791 7.32226 19.1941 7.62772 18.8886 8.15726L5.40591 31.5572C5.84338 32.1064 6.31139 32.6306 6.80773 33.1272ZM2.82865 27.2259C3.29036 28.3191 3.85615 29.3655 4.51819 30.3504L17.7 7.47408C18.2554 6.50999 19.0709 5.95545 19.9373 5.95317H19.9427C20.8063 5.95317 21.6245 6.50317 22.1827 7.46272L35.4445 30.2104C37.2058 27.5313 38.2431 24.4418 38.4555 21.2427C38.6679 18.0435 38.0481 14.844 36.6565 11.9556C35.2648 9.06717 33.1488 6.58846 30.5145 4.76088C27.8803 2.9333 24.8175 1.81917 21.6247 1.52701C18.4319 1.23484 15.2178 1.77462 12.2956 3.09374C9.3734 4.41287 6.84266 6.46638 4.94991 9.05423C3.05717 11.6421 1.86695 14.676 1.4952 17.8606C1.12346 21.0451 1.58286 24.2716 2.82865 27.2259Z" fill="#4D4D4D"/>
</svg>
